<?xml version="1.0" encoding="UTF-8"?>
<!-- Generator: Adobe Illustrator 28.1.0, SVG Export Plug-In . SVG Version: 6.00 Build 0)  -->
<svg xmlns="http://www.w3.org/2000/svg" xmlns:xlink="http://www.w3.org/1999/xlink" version="1.1" id="Calque_1" x="0px" y="0px" viewBox="0 0 378.9 136.2" style="enable-background:new 0 0 378.9 136.2;" xml:space="preserve">
<style type="text/css">
	.st0{fill:#1F203F;}
	.st1{fill:#FFFFFF;}
	.st2{fill:#DFDCDC;}
	.st3{fill:#C084DC;}
</style>
<g>
	<g>
		<path id="Tracé_111_00000176045409851879846420000004085769822031052446_" class="st0" d="M47,133v1.8H25.8V133    c1.2,0.1,2.4-0.8,2.5-2.2c0-0.1,0-0.2,0-0.3c0-0.3-0.1-0.7-0.2-1.1c-1.6-6.5-4.5-18.2-9.5-19.5l-1,1.2v17.6c0,2.3,1.8,4.2,4.1,4.2    c0,0,0,0,0.1,0v1.7H1.5V133c2.3,0,4.2-1.9,4.2-4.2V91.2c0-1.2-0.4-2.2-1.2-3c-0.8-0.8-1.9-1.2-3-1.2v-1.7h20.3v1.7    c-2.3,0-4.2,1.8-4.2,4.1c0,0,0,0,0,0.1v17.4l17.7-19.4c0.2-0.2,0.3-0.5,0.3-0.8c0-0.7-0.6-1.3-1.3-1.3l0,0v-1.8H44v1.7    c-2.8,0-5.5,1.2-7.4,3.2l-13.7,15.2c7.6,0.2,11.8,11.2,14.3,16.2c1.3,2.8,2.8,5.6,4.5,8.3C42.8,131.9,44.8,133,47,133"></path>
		<path id="Tracé_112_00000142161176981693846660000010803868819738440351_" class="st0" d="M82.1,129.6c0,1.9,1.6,3.5,3.5,3.5v1.7    H72.8c-1.5,0-2.7-1.2-2.7-2.7c-3.7,3.4-7.3,3.7-11.1,3.7c-1.2,0-9.7-0.5-9.7-8.7c0-11.8,20.8-15.4,20.8-15.4v-5    c0-2.1-0.2-6.7-5.5-6.7c-2.7,0-4.3,1.5-4.3,2.7c0,1.2,2.2,1.7,2.2,4.6c0,2.6-1.5,4.6-5.5,4.6s-5.1-2.9-5.1-4.7    c0-8.4,10.7-8.9,13.4-8.9H66c15.7,0,16.2,7.5,16.2,15.2L82.1,129.6L82.1,129.6z M70.2,113.4c-6.5,2.8-8.6,7.6-8.6,13.1    c0,3.2,0.9,6,4.7,6c1.6,0,3-0.7,3.9-2L70.2,113.4z"></path>
		<path id="Tracé_113_00000166653878388490633040000009528689524704676764_" class="st0" d="M125.2,128.8c0,2.3,1.9,4.3,4.2,4.3    l0,0v1.7h-20.5v-1.7c2.3,0,4.2-1.9,4.2-4.3l0,0v-20.6c0-1.3-0.3-5.1-4-5.1c-2.6,0-4.3,2.3-5,4.5V129c0,2.3,1.9,4.3,4.3,4.3v1.7    H88.1v-1.7c2.3,0,4.2-1.9,4.2-4.3l0,0V106c0-2.3-1.9-4.2-4.2-4.3l0,0V100c5.4,0,10.8-0.6,16.1-1.7l0.2-0.1v6.5    c0.1-0.6,4-7.1,10.5-7.1c9.7,0,10.4,7.6,10.4,12.7L125.2,128.8L125.2,128.8z"></path>
		<path id="Tracé_114_00000116224984469928414820000001923625765132968576_" class="st0" d="M168.9,127.2c-0.1,2.3,1.8,4.2,4.1,4.3    c0,0,0,0,0.1,0v1.7c-5.3,0-10.7,0.6-15.9,1.7l-0.2,0.1v-6.7c-0.9,2-2.4,3.7-4.2,5v0.1c-2.2,1.5-4.6,2.2-7.2,2.2    c-7.4,0-13.4-5.4-13.8-16.5v-0.8c0-8.5,3.9-20,15.2-20c5.2,0,8.7,2.4,10,3.9v-8.9c0-2.3-1.9-4.2-4.2-4.3l0,0v-1.7    c5.3,0,10.7-0.6,15.9-1.7h0.2L168.9,127.2L168.9,127.2z M157.1,125.2v-20.8c-1.3-2.1-3.6-3.3-6-3.4h-0.2c-4.8,0-7,6.2-7,12.8    c0,8,3,16.6,8,16.6c0.6,0,1.2-0.1,1.7-0.2C155.2,129.6,157,127,157.1,125.2"></path>
		<path id="Tracé_115_00000160870005844886341220000010542897008990769570_" class="st0" d="M208.5,129.6c0,1.9,1.6,3.5,3.5,3.5    v1.7h-12.8c-1.5,0-2.7-1.2-2.7-2.7c-3.7,3.4-7.3,3.7-11.1,3.7c-1.2,0-9.7-0.5-9.7-8.7c0-11.8,20.8-15.4,20.8-15.4v-5    c0-2.1-0.2-6.7-5.5-6.7c-2.7,0-4.3,1.5-4.3,2.7c0,1.2,2.2,1.7,2.2,4.6c0,2.6-1.5,4.6-5.5,4.6c-4,0-5.1-2.9-5.1-4.7    c0-8.4,10.7-8.9,13.4-8.9h0.7c15.7,0,16.2,7.5,16.2,15.2L208.5,129.6L208.5,129.6z M196.5,113.4c-6.5,2.8-8.6,7.6-8.6,13.1    c0,3.2,0.9,6,4.7,6c1.6,0,3-0.7,3.9-2L196.5,113.4L196.5,113.4z"></path>
	</g>
	<g>
		<path class="st1" d="M225,102.4v13h13.7v-13h5.9v32.4h-5.9v-14.3H225v14.3h-5.9v-32.4H225z"></path>
		<path class="st1" d="M269.6,120.4h-12.2v9.5H271v4.9h-19.6v-32.4h18.9v4.9h-12.9v8.4h12.2V120.4z"></path>
		<path class="st1" d="M282.7,125.6l-2.8,9.2h-6.1l10.4-32.4h7.6l10.5,32.4H296l-2.9-9.2H282.7z M292,121.1l-2.5-8    c-0.6-2-1.2-4.2-1.6-6.1h-0.1c-0.5,1.9-1,4.1-1.5,6.1l-2.5,8H292z"></path>
		<path class="st1" d="M306.8,102.4h5.9v27.5h13.3v5h-19.2V102.4z"></path>
		<path class="st1" d="M332.1,107.3h-9.2v-5h24.5v5H338v27.5h-5.9V107.3z"></path>
		<path class="st1" d="M357.1,102.4v13h13.7v-13h5.9v32.4h-5.9v-14.3h-13.7v14.3h-5.9v-32.4H357.1z"></path>
	</g>
	<g>
		<g>
			<path id="Tracé_97_00000091008428363071645510000012221129727326889898_" class="st1" d="M304.3,43.7c-1.2-0.7-1.2-0.8-0.7-2.2     c2.1-6,4.5-12.5,8.7-17.6c3-3.5,6.7-6.2,11-7.9c4.1-1.7,8.4-1.7,12.8-1.3c6.8,0.7,13.4,2.7,19.4,5.9c1.4,0.7,1.4,0.8,0.9,2.3     c-2.3,6.6-5.5,12.8-10.5,18.2c-2.7,3-6,5.7-9.9,7.3c-4.2,1.7-8.9,2.3-13.4,1.9C316.1,49.7,309.9,46.7,304.3,43.7"></path>
			<path id="Tracé_98_00000089540069623908755730000010927977734440542654_" class="st0" d="M351.7,5.5c-1.4,0.8-5.4,6.8-6.9,8.5     l-0.1,0.1c5.7,1.3,11.3,3.4,16.6,6c-0.7,1.9-1.7,3.7-2.7,5.5c1.8,0.3,8.6,1.9,9.2,1.3c1-1.2,1.8-2.4,2.6-3.7     c0.8-1.4,1.7-2.7,2.7-4.1c0.1-0.2,3.3-4.4,3.6-4.1C373.9,12.5,353.9,4.2,351.7,5.5"></path>
			<path id="Tracé_99_00000028312000703830692790000013387458834699108022_" class="st0" d="M340.3,48.4c5,0.3,13.4,0.7,16.5-0.7     c1.6-2.7,5.5-10.9,9.7-18.3c-3-0.3-5.8-1.2-8.5-2.5C354.6,33.1,351.3,42.2,340.3,48.4"></path>
			<path id="Tracé_100_00000034777877656942262460000012618046752724009857_" class="st0" d="M349.8,55.3c1.5-1.4,3.5-3.1,4.5-4.4     c-5.5,0.2-11,0.1-16.6-0.5c-2.1,1.4-4.3,2.5-6.7,3.3C338.7,54.5,344.5,55.5,349.8,55.3"></path>
			<path id="Tracé_101_00000032612325817664778470000015666557543232155557_" class="st0" d="M320.3,14.6     c5.5-1.9,11.4-2.3,17.1-1.7c1.2,0.1,2.4,0.3,3.6,0.6c0.5,0.2,1,0.2,1.5,0.3c0.3-0.7,0.8-1.5,1.2-2.2c1.7-2.5,3.7-4.9,6-7     c-4.7-1.2-9.5-2-14.4-2.4c-2.9-0.2-5.5-0.7-7.7,1.4c-2.2,2-4,4.3-6,6.4c1.1-3,3.6-5.5,5.8-7.7c-1,0-2,0.1-2.9,0.2     c-1.6,0.1-2,0.4-3,1.7c-1.8,2.3-3.4,5-5.1,7.5c0.7-3.1,2-6,3.7-8.6c-2.8,0.4-5.5,1.1-8.2,2c-1.6,0.5-2,0.8-2.7,2.3     c-0.7,1.3-1.2,2.8-1.7,4.2c-1.2,4.6-1,9.2-0.7,13.8c2.2-3.3,6-7.2,9.7-9C317.7,15.7,319.4,14.9,320.3,14.6z"></path>
			<path id="Tracé_105_00000118383580598066608110000014860950070066367110_" class="st0" d="M328.4,46.8c-1.4,0-2.8-0.1-4.1-0.3     c-5-0.8-9.7-2.7-14.1-5.3l0,0c-1.3-0.8-1.4-1.4-1-2.8c1.4-4.8,3.7-9.3,6.9-13.3c2.2-2.9,5.1-5.1,8.5-6.5c3.2-1.2,6.7-1.5,10-1     c5.1,0.7,10.1,2.7,14.6,5.4c1.4,0.9,1.6,1.3,1.1,2.9c-1.9,5.9-4.5,10.6-7.9,14.4c-2.1,2.4-4.7,4.2-7.7,5.4     C332.7,46.4,330.5,46.8,328.4,46.8"></path>
			<path id="Tracé_109_00000094582299433058788930000004756579402322708386_" class="st0" d="M334.1,56.4c-1.8-0.3-3.6-0.8-5.3-1.4     c-0.3-0.1-0.7-0.2-1.1-0.3c-0.2-0.1-0.3-0.1-0.5-0.2c-0.2,0-0.4,0-0.6,0.1c-0.7,0.2-1.5,0.2-2.2,0.3c-7.2,0.7-14-2.2-19.9-6.1     c-1.5-1.1-3-2.2-4.4-3.3c-9.3,3.7-18.5,7.5-27.6,11.4c-4.5,2-8.9,4-13.3,6.1c-4.4,2.2-8.7,4.6-13,7c-4.3,2.3-8.6,4.2-13.1,6.1     c-0.9,0.4-1.8,0.7-2.7,1.1c4.1-1.8,8-4.1,11.8-6.2c4.3-2.4,8.5-4.9,12.8-7.2c4.3-2.3,8.7-4.6,13.2-6.5c9-4.1,18.1-8.1,27.3-12     c0.7-0.3,1.5-0.6,2.2-0.9c0.3-0.2,0.7-0.3,1.1-0.5c0.2-0.1,1.1-0.3,1.2-0.6c0.2-1.5,0.6-3,1-4.5c0.7-2.7,1.5-5.2,2.6-7.7L305,28     c-1.1-3.4-1.7-6.9-1.8-10.4c-0.2-3.1,0.2-6.3,0.9-9.4c-5.4,2.6-10.3,6-14.5,10.3c-5.1,5.1-9.4,10.8-12.9,17.1     c-1.5,2.7-2.9,5.5-4.2,8.2c-0.7,1.5-1.3,3-2,4.6c-0.3,0.7-0.7,1.6-0.9,2.3c-0.2,0.4-0.3,0.8-0.4,1.2c-0.1,0.2-0.2,0.4-0.2,0.7     c-0.1,0.2-0.2,0.4-0.2,0.6c0.1-1.2,0.2-2.2,0.5-3.4c0.2-1.4,0.6-2.8,1-4.2c0.7-2.2,1.4-4.5,2.3-6.5c0.7-1.5,1.4-3,2.1-4.5     c0.5-1,1.1-2,1.6-2.9c0.6-1.1,1.2-2.2,1.8-3.1c1.3-2.1,2.6-4.1,4-6c1-1.4,2-2.9,3.1-4.2c1.4-1.7,2.8-3.5,4.1-5.2     c-3.8,3.7-7.7,7.4-11.1,11.4c-1.2,1.4-2.3,2.7-3.4,4.1c-0.6,0.8-1.2,1.7-1.8,2.5c-1.9,2.6-3.6,5.3-5.1,8.1     c-1.7,3-3.1,6.1-4.1,9.4c-0.7,2.3-1.2,4.6-1.6,7c0.2-4.9,1-9.7,2.2-14.4c1.1-4.7,3-9.2,5.5-13.3c0.7-1.1,1.5-2.2,2.2-3.2     c-3.4,3.1-6.3,7-8.4,11.1c-1.2,2.2-2.2,4.3-3.1,6.5c-0.8,2.2-1.6,4.5-2.2,6.7c-0.7,2.7-1.7,5.3-2.9,7.8c1.2-4.6,1-9.2,1.1-13.8     c0.1-4.5,0.6-9,2.9-12.9c-6,7.5-4.1,17.6-7.8,25.9c-1.4,3.1-3.3,6-5.7,8.4c2.5-6,3.6-12.4,3.4-18.9c-1.2,8.6-5.1,17.1-11.3,23.2     c-5.2,5.1-11.8,8.4-18.7,10.8c-7,2.4-14.2,3.8-21.3,5.4c-3.4,0.7-7,1.2-10.4,1.7c-0.4,0.1-0.7,0.1-1.2,0.2h0.2     c3.4-0.2,6.7-0.3,10.1-0.5c1.7-0.1,3.4-0.3,5.1-0.5c2.2-0.2,4.5-0.5,6.7-0.8c3.2-0.5,6.5-1,9.8-1.7c2.9-0.6,5.9-1.2,8.8-1.9     c2.4-0.6,4.8-1.2,7.2-1.6c2.4-0.4,4.9-0.7,7.4-0.7c4.9,0,9.7,0.2,14.6,0.9c2.4,0.2,4.8,0.7,7.1,1.2c2.2,0.5,4.5,1.2,6.6,2.2     c0.3,0.2,0.6,0.2,0.9,0.4c-2.9-2.6-6.5-4.1-10.2-5.4c-3.9-1.3-8-2.4-11.9-3.4c3.1,0,6.2,0.2,9.3,0.6c4.9,0.7,9.7,1.6,14.5,2.7     c5.1,1.2,10.1,2.7,15.1,4.3c-5.5-2.7-11.2-5.5-16.9-7.8c-2-0.8-4.1-1.6-6.1-2.3c9.4,2.8,19.1,4.9,28.9,6c1.6,0.2,3.1,0.3,4.7,0.5     c-9.4-2.6-18.6-6-27.4-10c-0.4-0.2-0.8-0.3-1.2-0.6c4.8,0.1,9.5,0.7,14.2,1.9c2.5,0.7,4.9,1.5,7.3,2.3c3.2,1.1,6.6,1.7,10,2.1     c4.6,0.5,9.5,0.3,13.9-1.1c-4.7,0.8-9.7,0.2-14.3-0.9c-3.2-0.8-6.5-2-9.4-3.5c-1.2-0.6-2.4-1.2-3.6-1.7c4.2,0.9,8.4,1.7,12.8,2.2     c4.1,0.6,8.4,0.9,12.6,0.9c1.4,0,2.7-0.1,4.1-0.2c-3.6-0.7-7-1.8-10.4-3.1c-2.5-0.9-4.9-2-7.2-3.2c-2-1.2-4-2.5-5.3-4.4     c0.2-0.1,0.2,0,0.4,0.2c0.2,0.2,0.5,0.3,0.7,0.5c0.5,0.3,1,0.7,1.5,1c0.9,0.6,1.8,1.1,2.7,1.7c1.7,0.9,3.6,1.7,5.5,2.5     c3.6,1.3,7.5,2.2,11.4,2.5c7.8,0.6,15.7-0.9,22.7-4.4c3.1-1.5,6-3.4,8.7-5.6C343.1,57.7,338.5,57.3,334.1,56.4"></path>
		</g>
		<path class="st2" d="M311.1,39.7c4.1,2.6,8.6,4.3,13.4,5.1c3.2,0.6,6.5,0.3,9.6-0.7c2.6-1,5.1-2.7,7-4.9c3.3-3.6,5.7-8,7.5-13.7    c0,0,0,0,0-0.1c0.1-0.2,0.1-0.4,0.1-0.4s-0.2-0.1-0.3-0.2c-0.1,0-0.2-0.1-0.2-0.1c-4.3-2.7-9-4.4-13.9-5.2    c-3.1-0.5-6.2-0.1-9.1,0.9c-3,1.3-5.7,3.3-7.8,5.9c-2.9,3.7-5.1,7.9-6.5,12.4c0,0.1-0.1,0.3-0.1,0.4c0,0.1-0.1,0.4-0.1,0.4    S310.9,39.5,311.1,39.7"></path>
		<g id="Tracé_107_00000019636196196517083130000010124910772036082069_">
			<path class="st3" d="M319.9,36c-2-5.4,0.7-11.4,6.1-13.5c5.5-2,11.6,0.7,13.6,6.1s-0.7,11.5-6.2,13.5l0,0     c-5.4,2.1-11.3-0.6-13.4-5.9C320,36.1,320,36,319.9,36"></path>
		</g>
		<path id="Tracé_106_00000043457061751511182470000000039194395773851543_" class="st1" d="M323.3,34.8c-1.4-3.6,0.5-7.6,4-8.9    s7.5,0.5,8.8,4c1.4,3.6-0.5,7.6-4,8.9l-0.1,0C328.5,40,324.7,38.3,323.3,34.8 M325.6,33.9c0.9,2.3,3.4,3.5,5.7,2.6l0,0    c2.3-0.9,3.4-3.5,2.6-5.7c-0.9-2.3-3.4-3.5-5.7-2.6l0,0C325.9,29.1,324.7,31.7,325.6,33.9"></path>
		<path id="Tracé_108_00000179630770663566507160000001732897340265215388_" class="st0" d="M325.6,33.9c-0.9-2.3,0.3-4.8,2.6-5.7    c2.2-0.9,4.8,0.3,5.7,2.6l0,0c0.9,2.3-0.3,4.8-2.6,5.7C329.1,37.3,326.5,36.2,325.6,33.9C325.6,34,325.6,33.9,325.6,33.9"></path>
		<path class="st2" d="M327.3,33.2c0.4,1.2,1.9,1.9,3.2,1.4l0,0c1.2-0.5,1.9-1.9,1.4-3.2c-0.4-1.2-1.9-1.9-3.2-1.4l0,0    C327.5,30.5,326.9,31.9,327.3,33.2"></path>
	</g>
</g>
</svg>
