<svg xmlns="http://www.w3.org/2000/svg" xmlns:xlink="http://www.w3.org/1999/xlink" viewBox="0 0 1023.69 93.08"><defs><style>.cls-1{fill:url(#Dégradé_sans_nom_13);}.cls-2{fill:url(#Dégradé_sans_nom_13-2);}.cls-3{fill:url(#Dégradé_sans_nom_13-3);}</style><linearGradient id="D&#xE9;grad&#xE9;_sans_nom_13" x1="991.03" y1="95.48" x2="991.03" y2="14.43" gradientUnits="userSpaceOnUse"><stop offset="0" stop-color="#5c37cd"></stop><stop offset="1" stop-color="#e6007e"></stop></linearGradient><linearGradient id="D&#xE9;grad&#xE9;_sans_nom_13-2" x1="1001.98" y1="95.48" x2="1001.98" y2="14.43" xlink:href="#D&#xE9;grad&#xE9;_sans_nom_13"></linearGradient><linearGradient id="D&#xE9;grad&#xE9;_sans_nom_13-3" x1="1012.94" y1="95.48" x2="1012.94" y2="14.43" xlink:href="#D&#xE9;grad&#xE9;_sans_nom_13"></linearGradient></defs><g id="Layer_2" data-name="Layer 2"><g id="Calque_1" data-name="Calque 1"><path id="Rectangle_509_copie_8" data-name="Rectangle 509 copie 8" d="M68.55,75.1l46.6-54.82-.26,13.13V91.17h13.79V1.91H114.89L64.34,61.58,13.66,1.91H0V91.16H13.78V33.41L13.4,20.27,60,75.1Zm77.33,16.07h13.79V1.91H145.88V91.16Zm136.59-17.6a144.58,144.58,0,0,1-42.25,6.63c-37.28,0-51.84-14.16-51.84-33.66s14.56-33.66,51.84-33.66a144.25,144.25,0,0,1,42.25,6.63l3.19-12.37C279.92,5.23,264,0,240.22,0c-46.47,0-65.88,20-65.88,46.54s19.41,46.53,65.88,46.53c23.74,0,39.7-5.22,45.44-7.14ZM299,91.17h13.78V59.29h32.05l41.74,31.87h21.45L364.4,58.78h5.36c18.9.13,34.6-7,34.6-28.18,0-21.42-15.32-28.69-34.47-28.69H299V91.16Zm13.78-44.76V14.79h57.45c11.37,0,19.92,4.08,19.92,15.81S381.51,46.41,370,46.41Zm103.51.13c0,26.52,20.55,46.54,60,46.54s60-20,60-46.54S515.78,0,476.33,0s-60,20-60,46.54Zm14,0c0-19.51,14.94-33.66,46-33.66S522.16,27,522.16,46.54,507.23,80.2,476.33,80.2s-46-14.15-46-33.66Zm134.4,44.63V65h53.11c20.55,0,38.42-8,38.42-31.62s-17.87-31.5-38.42-31.5H551V91.16h13.79Zm54-76.38c13.15,0,23.36,4.72,23.36,18.62s-10.21,18.74-23.36,18.74h-54V14.79Zm48.36,31.75c0,26.52,20.55,46.54,60,46.54s60-20,60-46.54S766.58,0,727.13,0s-60,20-60,46.54Zm14,0c0-19.51,14.94-33.66,46-33.66S773,27,773,46.54,758,80.2,727.13,80.2s-46-14.15-46-33.66ZM894.84,91.17V78.29H815.57V1.91H801.78V91.16h93.06ZM973.11,15H914.69V2H980.6ZM951.18,53H914.69V40h44ZM929.26,91H914.69V78h22.06Z"></path><polygon class="cls-1" points="958.37 90.99 965.86 78 1023.69 78 1023.69 90.99 958.37 90.99"></polygon><polygon class="cls-2" points="987.77 40 1023.69 40 1023.69 52.99 980.28 52.99 987.77 40"></polygon><polygon class="cls-3" points="1009.69 2 1023.69 2 1023.69 14.99 1002.2 14.99 1009.69 2"></polygon></g></g></svg>