<?xml version="1.0" encoding="UTF-8"?>
<!DOCTYPE svg PUBLIC "-//W3C//DTD SVG 1.1//EN" "http://www.w3.org/Graphics/SVG/1.1/DTD/svg11.dtd">
<svg version="1.1" xmlns="http://www.w3.org/2000/svg" xmlns:xlink="http://www.w3.org/1999/xlink" x="0" y="0" width="4200" height="900" viewBox="0, 0, 1400, 300">
  <g id="Background">
    <rect x="0" y="0" width="1400" height="300" fill="#000000" fill-opacity="0"/>
  </g>
  <g id="Layer_1">
    <path d="M299.551,286.949 C299.551,288.606 298.208,289.949 296.551,289.949 L246.375,289.949 C244.718,289.949 243.375,288.606 243.375,286.949 L243.375,235.656 C243.368,234.098 241.843,234.053 240.65,233.997 L77.595,233.996 C76.083,233.997 74.858,232.773 74.859,231.263 L74.86,180.555 C74.858,179.046 76.083,177.822 77.593,177.822 L240.652,177.82 C242.367,177.861 243.244,177.597 243.375,175.733 L243.375,124.421 C243.375,122.764 244.718,121.421 246.375,121.421 L296.551,121.421 C298.208,121.421 299.551,122.764 299.551,124.421 L299.551,286.949 z" fill="#1D94FD"/>
    <path d="M183.982,9.308 C185.639,9.308 186.982,10.651 186.982,12.308 L186.982,62.484 C186.982,64.14 185.639,65.484 183.982,65.484 L132.689,65.484 C131.131,65.49 131.086,67.016 131.031,68.208 L131.029,231.264 C131.031,232.776 129.806,234 128.296,234 L77.588,233.998 C76.079,234 74.855,232.776 74.855,231.266 L74.853,68.207 C74.894,66.491 74.63,65.615 72.766,65.484 L21.454,65.484 C19.797,65.484 18.454,64.14 18.454,62.484 L18.454,12.308 C18.454,10.651 19.797,9.308 21.454,9.308 L183.982,9.308 z" fill="#0C5799"/>
    <path d="M391.076,233.858 L391.076,98.21 L342.135,98.21 L342.135,68.488 L474.766,68.488 L474.766,98.21 L425.826,98.21 L425.826,233.858 z" fill="#0C5799"/>
    <path d="M505.382,236.093 Q488.51,236.093 478.509,226.483 Q468.509,216.874 468.509,200.896 Q468.509,183.465 479.794,173.688 Q491.08,163.911 516.444,162.123 L539.126,160.224 L543.26,179.554 L520.131,181.454 Q510.745,182.236 506.387,186.258 Q502.03,190.281 502.03,197.32 Q502.03,204.36 505.94,207.935 Q509.851,211.511 516.891,211.511 Q521.248,211.511 525.774,209.835 Q530.299,208.159 534.098,203.913 L534.098,157.766 Q534.098,149.609 531.64,144.916 Q529.182,140.223 523.539,138.268 Q517.896,136.312 508.622,136.312 Q501.918,136.312 493.649,137.429 Q485.381,138.547 477.671,140.893 L477.671,114.524 Q486.051,112.177 496.052,110.948 Q506.052,109.719 514.879,109.719 Q532.981,109.719 544.601,114.412 Q556.222,119.105 561.753,129.999 Q567.284,140.893 567.284,159.665 L567.284,233.858 L539.461,233.858 L537.003,221.344 L535.439,221.344 Q530.522,229.053 522.701,232.573 Q514.879,236.093 505.382,236.093 z" fill="#0C5799"/>
    <path d="M668.07,233.858 L627.733,171.062 L664.941,111.618 L701.032,111.618 L661.813,175.196 L661.813,165.811 L705.055,233.858 z M621.7,184.582 L621.7,157.542 L639.689,157.542 L639.689,184.582 z M590.637,233.858 L590.637,53.292 L624.716,53.292 L624.716,233.858 z" fill="#0C5799"/>
    <path d="M767.851,236.204 Q746.062,236.204 732.151,229.668 Q718.24,223.131 711.591,209.052 Q704.943,194.974 704.943,172.515 Q704.943,151.955 711.2,137.932 Q717.458,123.909 729.302,116.814 Q741.146,109.719 758.13,109.719 Q774.22,109.719 785.226,116.87 Q796.232,124.021 801.93,138.212 Q807.629,152.402 807.629,173.52 L807.629,182.906 L726.955,182.906 L726.955,162.682 L781.036,162.682 L775.784,164.805 Q775.784,151.955 773.773,144.748 Q771.761,137.541 767.739,134.692 Q763.716,131.843 757.794,131.843 Q751.872,131.843 747.682,134.692 Q743.492,137.541 741.313,144.748 Q739.134,151.955 739.134,164.693 L739.134,178.995 Q739.134,190.504 742.207,197.208 Q745.28,203.913 752.487,206.762 Q759.694,209.611 772.32,209.611 Q779.136,209.611 786.399,208.55 Q793.662,207.488 801.26,205.589 L801.26,232.07 Q792.209,234.193 784.108,235.199 Q776.007,236.204 767.851,236.204 z" fill="#0C5799"/>
    <path d="M863.162,233.858 L863.162,98.21 L814.221,98.21 L814.221,68.488 L946.852,68.488 L946.852,98.21 L897.912,98.21 L897.912,233.858 z" fill="#1D94FD"/>
    <path d="M983.39,235.981 Q972.552,235.981 963.948,231.567 Q955.344,227.154 950.372,217.209 Q945.4,207.265 945.4,190.728 L945.4,111.618 L979.479,111.618 L979.479,188.158 Q979.479,198.326 983.614,202.237 Q987.748,206.147 994.34,206.147 Q997.469,206.147 1001.101,205.142 Q1004.732,204.136 1008.084,202.013 Q1011.436,199.89 1013.783,196.65 L1013.783,111.618 L1047.862,111.618 L1047.862,233.858 L1019.593,233.858 L1017.246,221.344 L1015.682,221.344 Q1009.313,228.606 1001.101,232.294 Q992.888,235.981 983.39,235.981 z" fill="#1D94FD"/>
    <path d="M1071.997,233.858 L1071.997,111.618 L1099.931,111.618 L1102.613,127.932 L1104.289,127.932 Q1108.982,118.434 1117.027,114.188 Q1125.072,109.942 1134.793,109.942 Q1137.251,109.942 1139.654,110.166 Q1142.056,110.389 1143.955,110.724 L1143.955,142.011 Q1141.274,141.452 1138.313,141.284 Q1135.352,141.117 1132.67,141.117 Q1127.53,141.117 1122.446,142.513 Q1117.362,143.91 1113.116,146.536 Q1108.87,149.162 1106.077,152.961 L1106.077,233.858 z" fill="#1D94FD"/>
    <path d="M1157.14,233.858 L1157.14,111.618 L1185.41,111.618 L1187.756,124.245 L1189.432,124.245 Q1195.578,117.205 1204.014,113.462 Q1212.45,109.719 1222.618,109.719 Q1233.568,109.719 1242.116,114.132 Q1250.664,118.546 1255.636,128.491 Q1260.608,138.435 1260.608,155.084 L1260.608,233.858 L1226.529,233.858 L1226.529,157.43 Q1226.529,147.151 1222.394,143.352 Q1218.26,139.552 1211.221,139.552 Q1207.757,139.552 1204.07,140.558 Q1200.382,141.564 1197.03,143.687 Q1193.678,145.81 1191.22,149.05 L1191.22,233.858 z" fill="#1D94FD"/>
    <path d="M1316.365,236.204 Q1306.979,236.204 1298.04,234.919 Q1289.101,233.634 1281.056,230.953 L1281.056,204.918 Q1289.101,207.488 1297.928,208.885 Q1306.755,210.282 1315.806,210.282 Q1326.868,210.282 1331.505,206.985 Q1336.142,203.689 1336.142,197.991 Q1336.142,193.298 1333.684,190.895 Q1331.226,188.493 1325.75,187.264 L1308.096,183.465 Q1292.565,180.224 1285.078,171.621 Q1277.592,163.017 1277.592,148.38 Q1277.592,130.949 1291,120.334 Q1304.409,109.719 1331.226,109.719 Q1339.494,109.719 1347.036,110.613 Q1354.578,111.507 1360.836,113.183 L1360.836,139.217 Q1354.243,137.429 1347.204,136.536 Q1340.164,135.642 1332.566,135.642 Q1323.404,135.642 1318.264,137.374 Q1313.124,139.105 1311.057,141.899 Q1308.99,144.692 1308.99,148.044 Q1308.99,152.179 1311.392,154.581 Q1313.795,156.983 1319.27,158.324 L1337.036,162.011 Q1352.232,165.252 1359.886,173.409 Q1367.54,181.565 1367.54,196.985 Q1367.54,215.198 1354.02,225.701 Q1340.5,236.204 1316.365,236.204 z" fill="#1D94FD"/>
  </g>
</svg>
