<svg width="50" height="36" viewBox="0 0 50 36" fill="none" xmlns="http://www.w3.org/2000/svg">
<g clip-path="url(#clip0_17_95)">
<path d="M43.0539 12.7221C42.7969 10.82 41.7692 9.16856 39.9147 7.67654L38.8423 6.93622L38.1273 8.041C37.2113 9.46469 36.7532 11.4465 36.8985 13.3485C36.9655 14.0091 37.1777 15.2164 37.8369 16.2528C37.1777 16.6287 35.8707 17.1298 34.128 17.0957H0.83741L0.770382 17.4943C0.457584 19.3964 0.457584 25.3531 4.19998 29.9203C7.04867 33.3941 11.3049 35.1595 16.8683 35.1595C28.9333 35.1595 37.848 29.4305 42.0373 18.9977C43.6795 19.0319 47.2208 19.0091 49.0417 15.4214C49.0864 15.3417 49.1981 15.1253 49.5109 14.4419L49.6896 14.0661L48.673 13.3599C47.5559 12.6196 45.02 12.3349 43.0539 12.7221ZM27.4587 0H22.3981V4.74943H27.4587V0ZM27.4587 5.70615H22.3981V10.4556H27.4587V5.70615ZM21.4709 5.70615H16.4102V10.4556H21.4709V5.70615ZM15.4942 5.70615H10.4336V10.4556H15.4942V5.70615ZM9.50636 11.4123H4.44575V16.1617H9.50636V11.4123ZM15.4942 11.4123H10.4336V16.1617H15.4942V11.4123ZM21.4709 11.4123H16.4102V16.1617H21.4709V11.4123ZM27.4587 11.4123H22.3981V16.1617H27.4587V11.4123ZM33.4465 11.4123H28.3859V16.1617H33.4465V11.4123Z" fill="#1D63ED"/>
</g>
<defs>
<clipPath id="clip0_17_95">
<rect width="49.0421" height="35.1936" fill="white" transform="translate(0.647522)"/>
</clipPath>
</defs>
</svg>
