<svg width="72" height="72" viewBox="0 0 72 72" fill="none" xmlns="http://www.w3.org/2000/svg">
<path fill-rule="evenodd" clip-rule="evenodd" d="M41.7274 1.19441C41.235 1.19441 40.7778 1.30364 40.3558 1.44926C41.2526 2.06818 41.745 2.88735 41.9912 3.81573C42.0088 3.94315 42.0439 4.03417 42.0615 4.16159C42.0792 4.27081 42.0967 4.38003 42.0967 4.48926C42.1671 6.09117 41.6922 6.29141 41.3581 7.23799C40.8482 8.45763 40.9888 9.76829 41.6043 10.8241C41.6571 10.9515 41.7274 11.0971 41.8153 11.2246C41.1471 6.61907 44.8575 5.92734 45.5433 4.48926C45.596 3.23321 44.5937 2.39585 43.8024 1.81333C43.0463 1.34004 42.3605 1.19441 41.7274 1.19441ZM47.3193 2.23202C47.249 2.6507 47.3017 2.54147 47.2842 2.75992C47.2666 2.90554 47.2666 3.08758 47.249 3.23321C47.2139 3.37884 47.1787 3.52446 47.1259 3.6701C47.0908 3.81573 47.038 3.96135 46.9853 4.10698C46.9149 4.25261 46.8622 4.38003 46.7918 4.52566C46.7391 4.59851 46.7039 4.67129 46.6512 4.74411C46.616 4.79872 46.5808 4.85333 46.5457 4.90794C46.4577 5.03537 46.3698 5.16279 46.2819 5.27201C46.1764 5.38123 46.0885 5.50865 45.9654 5.59968C45.9654 5.6179 45.9654 5.6179 45.9654 5.6179C45.8599 5.70892 45.7543 5.81814 45.6313 5.90916C45.262 6.20041 44.8399 6.41886 44.4531 6.69191C44.33 6.78293 44.2069 6.85575 44.1014 6.96497C43.9783 7.05598 43.8728 7.147 43.7673 7.25622C43.6442 7.36544 43.5563 7.47466 43.4508 7.60209C43.3628 7.71132 43.2573 7.83873 43.187 7.96616C43.0991 8.09358 43.0111 8.22101 42.9408 8.34843C42.8704 8.49406 42.8177 8.62149 42.7474 8.76711C42.6946 8.91274 42.6419 9.04017 42.6067 9.18579C42.5539 9.34963 42.5188 9.49526 42.4836 9.64089C42.466 9.71373 42.466 9.80472 42.4485 9.87753C42.4308 9.95038 42.4308 10.0232 42.4133 10.096C42.4133 10.2416 42.3957 10.4054 42.3957 10.5511C42.3957 10.6603 42.3957 10.7695 42.4133 10.8787C42.4133 11.0244 42.4309 11.17 42.4661 11.3338C42.4837 11.4794 42.5188 11.6251 42.554 11.7707C42.6068 11.9163 42.6419 12.062 42.6947 12.2076C42.7298 12.2986 42.7826 12.3896 42.8178 12.4624L38.7733 10.8423C38.0875 10.6421 37.4193 10.46 36.7335 10.2962C36.3642 10.2052 35.9949 10.1142 35.6257 10.0232C34.5706 9.80472 33.4979 9.64089 32.4253 9.53167C32.3901 9.53167 32.3725 9.51344 32.3373 9.51344C31.2822 9.40422 30.2448 9.34961 29.1897 9.34961C28.416 9.34961 27.6422 9.38599 26.8861 9.44063C25.8134 9.51347 24.7408 9.65907 23.6681 9.8411C23.4043 9.87748 23.1406 9.93213 22.8768 9.98674C22.3317 10.096 21.8041 10.2234 21.2942 10.3508C21.0304 10.4236 20.7666 10.4964 20.5029 10.5692C20.2391 10.6785 19.9929 10.8059 19.7467 10.9151C19.5533 11.0061 19.3599 11.0971 19.1664 11.1882C19.1313 11.2064 19.0961 11.2064 19.0785 11.2245C18.9027 11.3156 18.7444 11.3884 18.5861 11.4794C18.5334 11.4976 18.4982 11.5158 18.463 11.534C18.2696 11.625 18.0762 11.7342 17.9179 11.8253C17.7948 11.8799 17.6717 11.9527 17.5662 12.0073C17.5135 12.0437 17.4431 12.0801 17.408 12.0983C17.2497 12.1893 17.0914 12.2803 16.9508 12.3714C16.7925 12.4624 16.6518 12.5534 16.5287 12.6444C16.4056 12.7354 16.2826 12.8083 16.177 12.8993C16.1594 12.9175 16.1419 12.9175 16.1243 12.9356C16.0188 13.0085 15.8957 13.0995 15.7902 13.1905C15.7902 13.1905 15.7726 13.2087 15.755 13.2269C15.6671 13.2997 15.5792 13.3725 15.4913 13.4453C15.4561 13.4635 15.4209 13.4999 15.3858 13.5182C15.2978 13.591 15.2099 13.682 15.122 13.7548C15.1044 13.7912 15.0692 13.8094 15.0516 13.8277C14.9461 13.9369 14.8406 14.0279 14.7351 14.1371C14.7175 14.1371 14.7175 14.1553 14.7 14.1735C14.5945 14.2645 14.4889 14.3737 14.3834 14.483C14.3658 14.5012 14.3658 14.5193 14.3483 14.5193C14.2604 14.6103 14.1725 14.7014 14.0845 14.8106C14.0494 14.847 13.9966 14.8834 13.9614 14.9198C13.8735 15.029 13.768 15.1383 13.6625 15.2475C13.6449 15.2839 13.6097 15.3021 13.5921 15.3385C13.4515 15.4841 13.3284 15.6298 13.1877 15.7754C13.1701 15.7936 13.1525 15.8118 13.1349 15.83C12.8536 16.1394 12.5546 16.4489 12.2381 16.722C11.9216 17.0132 11.5875 17.2863 11.2534 17.5229C10.9017 17.7778 10.5676 17.9962 10.1983 18.2147C9.8466 18.4149 9.47733 18.5969 9.09047 18.7608C8.72119 18.9246 8.33433 19.0702 7.94747 19.1976C7.20891 19.3615 6.45277 19.6709 5.80214 19.7255C5.66146 19.7255 5.5032 19.7619 5.36252 19.7802C5.20426 19.8165 5.06359 19.853 4.92291 19.8894C4.78224 19.944 4.64155 19.9986 4.50088 20.0532C4.3602 20.1078 4.21953 20.1806 4.07885 20.2535C3.95575 20.3445 3.81508 20.4173 3.69198 20.5083C3.56889 20.5993 3.4458 20.7085 3.34029 20.8178C3.2172 20.9088 3.09411 21.0362 2.9886 21.1454C2.88309 21.2729 2.77758 21.3821 2.68966 21.5095C2.60174 21.6551 2.49623 21.7825 2.42589 21.9282C2.33797 22.0556 2.25005 22.2012 2.1797 22.3469C2.10934 22.5107 2.03903 22.6563 1.98627 22.8202C1.93352 22.9658 1.88077 23.1296 1.82801 23.2934C1.79287 23.4391 1.75764 23.5847 1.74009 23.7303C1.74009 23.7486 1.72248 23.7667 1.72248 23.7849C1.68734 23.9488 1.68734 24.1672 1.66972 24.2764C1.65211 24.4039 1.63458 24.5131 1.63458 24.6405C1.63458 24.7134 1.63458 24.8043 1.65219 24.8772C1.66981 25.0046 1.68734 25.1138 1.72256 25.223C1.7577 25.3322 1.79293 25.4415 1.84565 25.5507C1.84565 25.5689 1.84565 25.5689 1.84565 25.5689C1.8984 25.6781 1.96874 25.7874 2.03908 25.8966C2.10944 26.0058 2.17976 26.115 2.26768 26.2243C2.3556 26.3153 2.46111 26.4245 2.56662 26.5155C2.67213 26.6247 2.77764 26.7157 2.90073 26.8068C3.32276 27.189 3.42827 27.3165 3.97339 27.6077C4.06131 27.6623 4.14924 27.6987 4.25475 27.7533C4.27237 27.7533 4.28989 27.7716 4.3075 27.7716C4.3075 27.8079 4.3075 27.8262 4.32512 27.8626C4.34273 28.0082 4.37787 28.1539 4.41304 28.2995C4.44818 28.4633 4.50097 28.6089 4.55372 28.7364C4.60648 28.8456 4.64164 28.9548 4.6944 29.064C4.71201 29.1004 4.72954 29.1369 4.74715 29.1551C4.81752 29.3007 4.88783 29.4281 4.95816 29.5555C5.04609 29.683 5.13401 29.8104 5.22193 29.9378C5.30985 30.047 5.41536 30.1745 5.52087 30.2837C5.62638 30.3929 5.73189 30.4839 5.85499 30.5931C5.85499 30.5931 5.8726 30.6114 5.89013 30.6114C5.99564 30.7024 6.10114 30.7934 6.20665 30.8662C6.32974 30.9572 6.45284 31.0301 6.59351 31.1029C6.71661 31.1757 6.85728 31.2485 6.99796 31.3031C7.10347 31.3577 7.22655 31.3941 7.34965 31.4305C7.36727 31.4488 7.38479 31.4488 7.42002 31.4669C7.49038 31.4852 7.57827 31.5033 7.64861 31.5215C7.59586 32.5045 7.57825 33.4329 7.71898 33.7606C7.87724 34.1246 8.65096 33.0142 9.42469 31.74C9.31918 32.996 9.24884 34.4705 9.42469 34.9074C9.61812 35.3625 10.6732 33.9426 11.5876 32.3771C24.0551 29.3917 35.4324 38.3115 36.6281 50.9083C36.3995 48.9423 34.0608 47.8501 32.9881 48.1232C32.4606 49.4702 31.5637 51.1996 30.1218 52.2736C30.2449 51.0721 30.1922 49.8343 29.946 48.6329C29.5591 50.3076 28.803 51.8731 27.7655 53.2202C26.0949 53.3476 24.4244 52.5102 23.5451 51.2542C23.4748 51.1996 23.4572 51.0904 23.4045 51.0175C23.3517 50.8901 23.299 50.7627 23.2638 50.6353C23.211 50.5078 23.1759 50.3804 23.1583 50.253C23.1407 50.1256 23.1407 49.9981 23.1407 49.8525C23.1407 49.7615 23.1407 49.6705 23.1407 49.5795C23.1583 49.452 23.1934 49.3246 23.2286 49.1972C23.2637 49.0698 23.299 48.9423 23.3517 48.8149C23.4221 48.6875 23.4748 48.5601 23.5627 48.4326C23.8616 47.5589 23.8616 46.8489 23.3165 46.4302C23.211 46.3574 23.1055 46.3028 22.9824 46.2482C22.912 46.23 22.8241 46.1936 22.7538 46.1754C22.7011 46.1571 22.6659 46.139 22.6131 46.1207C22.49 46.0844 22.3669 46.0479 22.2439 46.0297C22.1208 45.9934 21.9977 45.9751 21.8746 45.9751C21.7515 45.9569 21.6108 45.9387 21.4877 45.9387C21.3998 45.9387 21.3119 45.957 21.2239 45.957C21.0833 45.957 20.9602 45.9752 20.8371 46.0116C20.714 46.0298 20.5909 46.048 20.4678 46.0844C20.3447 46.1208 20.2216 46.1573 20.0985 46.2119C19.9754 46.2665 19.8699 46.3211 19.7468 46.3757C19.6413 46.4303 19.5358 46.5031 19.4127 46.5577C15.3155 49.3246 17.7598 55.8051 20.5557 57.6801C19.5006 57.8803 18.428 58.117 18.1291 58.3536C18.1114 58.3718 18.0939 58.39 18.0939 58.39C18.85 58.8633 19.6414 59.2638 20.4678 59.6096C21.5932 59.9919 22.789 60.3378 23.3165 60.4834V60.5016C24.7761 60.8111 26.2532 60.9203 27.7479 60.8293C35.5379 60.265 41.9211 54.1304 43.0817 46.048C43.1168 46.2118 43.152 46.3575 43.1872 46.5213C43.2399 46.849 43.3103 47.1948 43.3454 47.5407C43.3454 47.5407 43.3454 47.5407 43.3454 47.559C43.3806 47.7228 43.3982 47.8866 43.4158 48.0322C43.4158 48.0686 43.4158 48.0869 43.4158 48.1051C43.4334 48.2689 43.451 48.4328 43.451 48.5784C43.4686 48.7786 43.4861 48.9789 43.4861 49.1791C43.4861 49.2701 43.4861 49.3611 43.4861 49.4704C43.4861 49.5614 43.5037 49.6706 43.5037 49.7616C43.5037 49.8708 43.4861 49.9801 43.4861 50.0893C43.4861 50.1803 43.4861 50.2713 43.4861 50.3441C43.4861 50.4716 43.4685 50.5808 43.4685 50.7082C43.4685 50.781 43.4685 50.8538 43.4509 50.9448C43.4509 51.0723 43.4333 51.1997 43.4333 51.3453C43.4156 51.3999 43.4156 51.4545 43.4156 51.5092C43.398 51.6548 43.3805 51.7822 43.3629 51.9278C43.3629 51.9825 43.3629 52.0371 43.3452 52.0917C43.3276 52.2737 43.2925 52.4375 43.2749 52.6196V52.6378V52.6561C43.2397 52.8199 43.2045 53.0019 43.1694 53.1657C43.1694 53.184 43.1694 53.2021 43.1694 53.2204C43.1342 53.3842 43.099 53.548 43.0639 53.7118C43.0639 53.7301 43.0463 53.7665 43.0463 53.7847C43.0111 53.9485 42.9759 54.1124 42.9232 54.2762C42.9232 54.2944 42.9232 54.3126 42.9232 54.3308C42.8704 54.5128 42.8177 54.6767 42.7825 54.8405C42.7649 54.8587 42.7649 54.8769 42.7649 54.8769C42.7121 55.0589 42.6594 55.2409 42.6066 55.423C42.5363 55.605 42.4835 55.7689 42.4132 55.9509C42.3428 56.1329 42.2901 56.315 42.2198 56.4788C42.1494 56.6608 42.0791 56.8247 42.0088 57.0067H41.9911C41.9207 57.1705 41.8504 57.3526 41.7625 57.5164C41.7449 57.571 41.7274 57.6074 41.7098 57.6438C41.6922 57.6621 41.6922 57.6802 41.6746 57.6984C40.5316 60.0831 38.8435 62.1765 36.7333 63.8148C36.5927 63.9058 36.452 64.0151 36.3113 64.1243C36.2762 64.1607 36.2234 64.1789 36.1882 64.2153C36.0651 64.3063 35.942 64.3973 35.8014 64.4884L35.8541 64.5976H35.8717C36.1179 64.5612 36.3641 64.5247 36.6103 64.4884H36.6279C37.0851 64.4155 37.5423 64.3245 37.9995 64.2335C38.1226 64.2152 38.2633 64.1789 38.3863 64.1425C38.4743 64.1242 38.5446 64.1061 38.6325 64.0879C38.7556 64.0696 38.8787 64.0333 39.0018 64.015C39.1073 63.9786 39.2128 63.9604 39.3183 63.924C41.0768 63.4871 42.7825 62.8864 44.4179 62.1765C41.6219 66.1266 37.8764 69.3123 33.4978 71.4057C35.5201 71.26 37.5423 70.9142 39.4942 70.3317C46.5808 68.1654 52.542 63.2323 56.1116 56.588C55.3907 60.793 53.7729 64.7978 51.3814 68.2929C53.0871 67.1278 54.6521 65.7808 56.0765 64.2517C60.0154 59.992 62.6004 54.5856 63.4796 48.7787C64.0775 51.6548 64.2533 54.622 63.9896 57.5528C76.6857 39.2218 65.0446 20.2173 60.1737 15.2113C60.1561 15.1749 60.1386 15.1567 60.1386 15.1203C60.1209 15.1385 60.1209 15.1385 60.1209 15.1567C60.1209 15.1384 60.1209 15.1384 60.1033 15.1203C60.1033 15.3387 60.0857 15.5572 60.0682 15.7756C60.0154 16.1943 59.9627 16.5948 59.8923 16.9953C59.8044 17.3957 59.6989 17.7962 59.5934 18.1967C59.4703 18.579 59.3296 18.9794 59.1714 19.3617C59.0131 19.7258 58.8373 20.1081 58.6438 20.4721C58.4504 20.818 58.2394 21.1821 58.0108 21.5097C57.7822 21.8556 57.536 22.1833 57.2898 22.4927C57.026 22.8204 56.7447 23.1116 56.4633 23.4029C56.2875 23.5667 56.1292 23.7124 55.9534 23.858C55.8127 23.9854 55.6896 24.0946 55.5489 24.2221C55.2324 24.4769 54.9159 24.7136 54.5642 24.932C54.2301 25.1504 53.8784 25.3689 53.5267 25.5509C53.1574 25.733 52.7881 25.8968 52.4189 26.0606C52.0496 26.2062 51.6627 26.3337 51.2759 26.4429C50.889 26.5521 50.4846 26.6431 50.0977 26.7159C49.6932 26.7888 49.2888 26.8252 48.9019 26.8616C48.6206 26.8798 48.3392 26.898 48.0579 26.898C47.6534 26.898 47.249 26.8616 46.8621 26.8251C46.4577 26.7887 46.0532 26.7341 45.6664 26.6431C45.2619 26.5702 44.8751 26.461 44.4882 26.3336H44.4706C44.8574 26.2972 45.2443 26.2608 45.6312 26.188C46.0356 26.1151 46.4225 26.0242 46.8093 25.9149C47.1962 25.8057 47.5831 25.6783 47.9523 25.5327C48.3392 25.387 48.7085 25.205 49.0602 25.023C49.4295 24.8409 49.7636 24.6407 50.1153 24.4222C50.4494 24.1856 50.7835 23.949 51.1 23.6941C51.4165 23.4393 51.7155 23.1662 51.9968 22.8749C52.2957 22.6019 52.5595 22.2924 52.8233 21.983C53.0871 21.6553 53.3332 21.3276 53.5618 21C53.597 20.9454 53.6322 20.8726 53.6674 20.8179C53.8432 20.5267 54.019 20.2354 54.1773 19.9442C54.3707 19.5801 54.5466 19.216 54.7048 18.8338C54.8631 18.4515 55.0038 18.0692 55.1269 17.6687C55.25 17.2864 55.3379 16.886 55.4258 16.4855C55.4962 16.0668 55.5665 15.6663 55.6017 15.2659C55.6368 14.8472 55.672 14.4285 55.672 14.028C55.672 13.7368 55.6544 13.4455 55.6369 13.1542C55.6017 12.7356 55.549 12.3351 55.4962 11.9346C55.4258 11.5159 55.3379 11.1155 55.2324 10.715C55.1093 10.3327 54.9862 9.93222 54.8456 9.54995C54.7049 9.16767 54.5291 8.78539 54.3532 8.42132C54.1598 8.05725 53.9663 7.69318 53.7553 7.34732C53.5267 7.00145 53.2981 6.67379 53.0519 6.34612C52.7882 6.03666 52.5244 5.7272 52.243 5.41774C52.1024 5.27211 51.9441 5.10828 51.7858 4.96265C50.9945 4.32553 50.1681 3.7248 49.3416 3.1787C49.2185 3.10586 49.113 3.05127 48.9899 2.99666C48.4096 2.61439 47.8644 2.41405 47.3193 2.23202Z" fill="#E0234E"/>
</svg>
