<svg width="120" height="90" viewBox="0 0 120 90" fill="none" xmlns="http://www.w3.org/2000/svg">
<path d="M45.7201 29.76C45.6582 25.2539 50.4007 22.2905 54.4236 24.3215L81.5021 37.9921C85.6758 40.0992 85.9426 45.9589 81.9776 48.4365L55.3157 65.0967C51.3507 67.5743 46.201 64.7658 46.1368 60.0908L45.7201 29.76Z" stroke="url(#paint0_linear_29_3)" stroke-width="2"/>
<path d="M45.76 59.223C41.2539 59.2849 38.2905 54.5425 40.3215 50.5195L53.9921 23.4411C56.0992 19.2673 61.9589 19.0006 64.4365 22.9656L81.0967 49.6274C83.5743 53.5924 80.7658 58.7422 76.0908 58.8064L45.76 59.223Z" stroke="url(#paint1_linear_29_3)" stroke-width="2"/>
<path d="M75.223 58.2078C75.2849 62.714 70.5424 65.6774 66.5195 63.6464L39.441 49.9757C35.2673 47.8686 35.0005 42.0089 38.9655 39.5313L65.6274 22.8711C69.5924 20.3935 74.7421 23.202 74.8063 27.877L75.223 58.2078Z" stroke="url(#paint2_linear_29_3)" stroke-width="2"/>
<path d="M8.544 83.126C7.788 83.126 7.102 83 6.486 82.748C5.87933 82.496 5.35667 82.1413 4.918 81.684C4.48867 81.2173 4.15733 80.6667 3.924 80.032C3.7 79.388 3.588 78.6787 3.588 77.904C3.588 77.1013 3.70467 76.3827 3.938 75.748C4.18067 75.104 4.52133 74.5533 4.96 74.096C5.408 73.6387 5.94 73.2887 6.556 73.046C7.172 72.8033 7.84867 72.682 8.586 72.682C9.426 72.682 10.1727 72.8267 10.826 73.116C11.4887 73.4053 12.0253 73.8113 12.436 74.334C12.8467 74.8473 13.0987 75.454 13.192 76.154H11.96C11.8667 75.6313 11.6613 75.1927 11.344 74.838C11.0267 74.4833 10.63 74.2127 10.154 74.026C9.68733 73.8393 9.16467 73.746 8.586 73.746C7.83 73.746 7.16733 73.914 6.598 74.25C6.02867 74.5767 5.58533 75.048 5.268 75.664C4.96 76.28 4.806 77.022 4.806 77.89C4.806 78.5433 4.89467 79.1313 5.072 79.654C5.24933 80.1673 5.50133 80.606 5.828 80.97C6.15467 81.334 6.54667 81.614 7.004 81.81C7.47067 81.9967 7.98867 82.09 8.558 82.09C9.286 82.09 9.92067 81.95 10.462 81.67C11.0127 81.3807 11.4373 80.97 11.736 80.438C12.044 79.8967 12.198 79.248 12.198 78.492V78.184L12.646 78.674H8.726V77.75H13.43V78.366C13.43 79.094 13.3133 79.752 13.08 80.34C12.8467 80.928 12.5153 81.4273 12.086 81.838C11.6567 82.2487 11.1433 82.566 10.546 82.79C9.94867 83.014 9.28133 83.126 8.544 83.126ZM18.0069 83.126C17.3069 83.126 16.7049 82.972 16.2009 82.664C15.7062 82.356 15.3282 81.9173 15.0669 81.348C14.8056 80.7787 14.6749 80.116 14.6749 79.36C14.6749 78.5853 14.8056 77.9133 15.0669 77.344C15.3282 76.7653 15.7016 76.322 16.1869 76.014C16.6722 75.6967 17.2649 75.538 17.9649 75.538C18.7116 75.538 19.3276 75.706 19.8129 76.042C20.2982 76.378 20.6482 76.8447 20.8629 77.442C21.0869 78.0393 21.1709 78.73 21.1149 79.514H15.7809C15.7902 80.1207 15.8836 80.6293 16.0609 81.04C16.2476 81.4413 16.5042 81.7447 16.8309 81.95C17.1669 82.146 17.5589 82.244 18.0069 82.244C18.5482 82.244 18.9916 82.1087 19.3369 81.838C19.6822 81.5673 19.9016 81.2127 19.9949 80.774H21.0729C21.0169 81.2687 20.8442 81.6933 20.5549 82.048C20.2749 82.4027 19.9109 82.6733 19.4629 82.86C19.0242 83.0373 18.5389 83.126 18.0069 83.126ZM15.7949 78.87L15.6689 78.702H20.1349L20.0089 78.898C20.0182 78.31 19.9389 77.8387 19.7709 77.484C19.6029 77.12 19.3602 76.854 19.0429 76.686C18.7349 76.5087 18.3756 76.42 17.9649 76.42C17.5356 76.42 17.1622 76.5133 16.8449 76.7C16.5276 76.8867 16.2756 77.162 16.0889 77.526C15.9116 77.8807 15.8136 78.3287 15.7949 78.87ZM22.7261 83V75.65H23.8041L23.8461 77.176H23.9301C24.1541 76.6347 24.4994 76.2287 24.9661 75.958C25.4328 75.678 25.9414 75.538 26.4921 75.538C26.8748 75.538 27.2248 75.594 27.5421 75.706C27.8688 75.818 28.1488 76 28.3821 76.252C28.6248 76.504 28.8114 76.8307 28.9421 77.232C29.0728 77.624 29.1381 78.1047 29.1381 78.674V83H28.0041V78.898C28.0041 78.3473 27.9341 77.8947 27.7941 77.54C27.6634 77.1853 27.4581 76.924 27.1781 76.756C26.9074 76.5787 26.5574 76.49 26.1281 76.49C25.6708 76.49 25.2694 76.602 24.9241 76.826C24.5788 77.05 24.3128 77.3533 24.1261 77.736C23.9394 78.1093 23.8461 78.5387 23.8461 79.024V83H22.7261ZM31.2027 83V75.65H32.3367V83H31.2027ZM31.2027 74.432V72.794H32.3367V74.432H31.2027ZM37.0603 83.126C36.5189 83.126 36.0476 83.0187 35.6463 82.804C35.2449 82.58 34.9369 82.2487 34.7223 81.81C34.5076 81.362 34.4003 80.8113 34.4003 80.158V75.65H35.5343V79.878C35.5343 80.3633 35.5996 80.7787 35.7303 81.124C35.8609 81.46 36.0663 81.7167 36.3463 81.894C36.6356 82.0713 37.0043 82.16 37.4523 82.16C37.8909 82.16 38.2783 82.0527 38.6143 81.838C38.9503 81.6233 39.2116 81.32 39.3983 80.928C39.5849 80.536 39.6783 80.0833 39.6783 79.57V75.65H40.8123V83H39.7343L39.6783 81.432H39.6083C39.4123 81.9547 39.0856 82.37 38.6283 82.678C38.1709 82.9767 37.6483 83.126 37.0603 83.126ZM45.3288 83.14C44.7034 83.14 44.1621 83.0373 43.7048 82.832C43.2568 82.6267 42.9114 82.342 42.6688 81.978C42.4354 81.614 42.3188 81.1893 42.3188 80.704H43.4528C43.4528 81.2453 43.6254 81.6467 43.9708 81.908C44.3254 82.16 44.7874 82.286 45.3568 82.286C45.9261 82.286 46.3601 82.1787 46.6588 81.964C46.9668 81.7493 47.1208 81.446 47.1208 81.054C47.1208 80.7553 47.0554 80.5267 46.9248 80.368C46.7941 80.2 46.5934 80.0693 46.3228 79.976C46.0521 79.8827 45.6974 79.8033 45.2588 79.738C44.6521 79.654 44.1434 79.5373 43.7328 79.388C43.3314 79.2387 43.0281 79.0287 42.8228 78.758C42.6268 78.478 42.5288 78.114 42.5288 77.666C42.5288 77.2367 42.6454 76.8633 42.8788 76.546C43.1121 76.2193 43.4388 75.9673 43.8588 75.79C44.2788 75.6033 44.7688 75.51 45.3288 75.51C45.9168 75.51 46.4161 75.608 46.8268 75.804C47.2468 75.9907 47.5641 76.2567 47.7788 76.602C48.0028 76.938 48.1194 77.3393 48.1288 77.806H47.0228C47.0134 77.4607 46.9341 77.1853 46.7848 76.98C46.6448 76.7747 46.4488 76.6253 46.1968 76.532C45.9541 76.4293 45.6601 76.378 45.3148 76.378C44.7921 76.378 44.3861 76.4853 44.0968 76.7C43.8074 76.9147 43.6628 77.1993 43.6628 77.554C43.6628 77.8247 43.7328 78.044 43.8728 78.212C44.0128 78.3707 44.2274 78.4967 44.5168 78.59C44.8061 78.674 45.1794 78.7487 45.6368 78.814C46.0474 78.87 46.4161 78.9447 46.7428 79.038C47.0694 79.1313 47.3448 79.262 47.5688 79.43C47.8021 79.5887 47.9748 79.794 48.0868 80.046C48.2081 80.2887 48.2688 80.592 48.2688 80.956C48.2688 81.656 47.9981 82.1973 47.4568 82.58C46.9248 82.9533 46.2154 83.14 45.3288 83.14ZM54.3445 83.126C53.5978 83.126 52.9211 83.0047 52.3145 82.762C51.7078 82.51 51.1851 82.1553 50.7465 81.698C50.3171 81.2407 49.9858 80.6947 49.7525 80.06C49.5191 79.416 49.4025 78.6973 49.4025 77.904C49.4025 77.1013 49.5191 76.3827 49.7525 75.748C49.9858 75.104 50.3218 74.5533 50.7605 74.096C51.1991 73.6387 51.7171 73.2887 52.3145 73.046C52.9211 72.8033 53.5978 72.682 54.3445 72.682C55.1658 72.682 55.8985 72.8267 56.5425 73.116C57.1958 73.396 57.7278 73.7973 58.1385 74.32C58.5585 74.8427 58.8198 75.4587 58.9225 76.168H57.7045C57.6111 75.692 57.4151 75.272 57.1165 74.908C56.8178 74.544 56.4351 74.2593 55.9685 74.054C55.5018 73.8393 54.9605 73.732 54.3445 73.732C53.5885 73.732 52.9305 73.9 52.3705 74.236C51.8105 74.572 51.3811 75.0527 51.0825 75.678C50.7838 76.294 50.6345 77.036 50.6345 77.904C50.6345 78.548 50.7185 79.1313 50.8865 79.654C51.0638 80.1673 51.3111 80.606 51.6285 80.97C51.9551 81.3247 52.3471 81.6 52.8045 81.796C53.2618 81.9827 53.7751 82.076 54.3445 82.076C54.9511 82.076 55.4878 81.9733 55.9545 81.768C56.4305 81.5627 56.8178 81.2733 57.1165 80.9C57.4245 80.5267 57.6205 80.088 57.7045 79.584L58.9225 79.598C58.8385 80.3073 58.5911 80.928 58.1805 81.46C57.7698 81.992 57.2331 82.4027 56.5705 82.692C55.9171 82.9813 55.1751 83.126 54.3445 83.126ZM63.7172 83.126C63.1852 83.126 62.6999 83.0373 62.2612 82.86C61.8319 82.6827 61.4586 82.426 61.1412 82.09C60.8332 81.754 60.5906 81.3573 60.4132 80.9C60.2452 80.4333 60.1612 79.9153 60.1612 79.346C60.1612 78.59 60.3059 77.9273 60.5952 77.358C60.8846 76.7887 61.2952 76.3453 61.8272 76.028C62.3686 75.7013 62.9986 75.538 63.7172 75.538C64.2492 75.538 64.7299 75.6267 65.1592 75.804C65.5979 75.972 65.9712 76.224 66.2792 76.56C66.5872 76.896 66.8252 77.2973 66.9932 77.764C67.1612 78.2307 67.2452 78.7533 67.2452 79.332C67.2452 80.0787 67.1006 80.7367 66.8112 81.306C66.5312 81.8753 66.1252 82.3233 65.5932 82.65C65.0612 82.9673 64.4359 83.126 63.7172 83.126ZM63.7172 82.146C64.1932 82.146 64.6086 82.0387 64.9632 81.824C65.3179 81.6 65.5932 81.278 65.7892 80.858C65.9946 80.4287 66.0972 79.92 66.0972 79.332C66.0972 78.8933 66.0412 78.5013 65.9292 78.156C65.8172 77.8013 65.6586 77.5027 65.4532 77.26C65.2479 77.008 65.0006 76.8167 64.7112 76.686C64.4219 76.5553 64.0906 76.49 63.7172 76.49C63.2412 76.49 62.8212 76.6067 62.4572 76.84C62.1026 77.064 61.8226 77.386 61.6172 77.806C61.4212 78.226 61.3232 78.7393 61.3232 79.346C61.3232 79.7753 61.3746 80.1673 61.4772 80.522C61.5892 80.8673 61.7479 81.1613 61.9532 81.404C62.1679 81.6467 62.4246 81.8333 62.7232 81.964C63.0219 82.0853 63.3532 82.146 63.7172 82.146ZM71.4977 83.126C71.0497 83.126 70.6391 83.042 70.2657 82.874C69.9017 82.6967 69.5844 82.4493 69.3137 82.132C69.0431 81.8053 68.8331 81.4087 68.6837 80.942C68.5437 80.466 68.4737 79.9247 68.4737 79.318C68.4737 78.5153 68.5997 77.8293 68.8517 77.26C69.1131 76.6907 69.4677 76.2613 69.9157 75.972C70.3731 75.6733 70.9004 75.524 71.4977 75.524C71.9271 75.524 72.3144 75.594 72.6597 75.734C73.0144 75.8647 73.3131 76.056 73.5557 76.308C73.7984 76.5507 73.9804 76.84 74.1017 77.176H74.1717V72.794H75.3057L75.2917 83H74.2137L74.1717 81.46H74.1017C73.9151 81.9547 73.5977 82.356 73.1497 82.664C72.7017 82.972 72.1511 83.126 71.4977 83.126ZM71.8757 82.174C72.3704 82.174 72.7857 82.0573 73.1217 81.824C73.4577 81.5907 73.7144 81.292 73.8917 80.928C74.0691 80.564 74.1577 80.1767 74.1577 79.766V78.87C74.1577 78.562 74.1064 78.268 74.0037 77.988C73.9011 77.6987 73.7564 77.442 73.5697 77.218C73.3831 76.9847 73.1451 76.8027 72.8557 76.672C72.5757 76.532 72.2491 76.462 71.8757 76.462C71.4277 76.462 71.0357 76.574 70.6997 76.798C70.3637 77.0127 70.1024 77.33 69.9157 77.75C69.7291 78.17 69.6357 78.6927 69.6357 79.318C69.6357 79.934 69.7291 80.4567 69.9157 80.886C70.1024 81.306 70.3637 81.628 70.6997 81.852C71.0357 82.0667 71.4277 82.174 71.8757 82.174ZM80.2413 83.126C79.5413 83.126 78.9393 82.972 78.4353 82.664C77.9406 82.356 77.5626 81.9173 77.3013 81.348C77.0399 80.7787 76.9093 80.116 76.9093 79.36C76.9093 78.5853 77.0399 77.9133 77.3013 77.344C77.5626 76.7653 77.9359 76.322 78.4213 76.014C78.9066 75.6967 79.4993 75.538 80.1993 75.538C80.9459 75.538 81.5619 75.706 82.0473 76.042C82.5326 76.378 82.8826 76.8447 83.0973 77.442C83.3213 78.0393 83.4053 78.73 83.3493 79.514H78.0153C78.0246 80.1207 78.1179 80.6293 78.2953 81.04C78.4819 81.4413 78.7386 81.7447 79.0653 81.95C79.4013 82.146 79.7933 82.244 80.2413 82.244C80.7826 82.244 81.2259 82.1087 81.5713 81.838C81.9166 81.5673 82.1359 81.2127 82.2293 80.774H83.3073C83.2513 81.2687 83.0786 81.6933 82.7893 82.048C82.5093 82.4027 82.1453 82.6733 81.6973 82.86C81.2586 83.0373 80.7733 83.126 80.2413 83.126ZM78.0293 78.87L77.9033 78.702H82.3693L82.2433 78.898C82.2526 78.31 82.1733 77.8387 82.0053 77.484C81.8373 77.12 81.5946 76.854 81.2773 76.686C80.9693 76.5087 80.6099 76.42 80.1993 76.42C79.7699 76.42 79.3966 76.5133 79.0793 76.7C78.7619 76.8867 78.5099 77.162 78.3233 77.526C78.1459 77.8807 78.0479 78.3287 78.0293 78.87ZM89.4265 83.126C88.6798 83.126 88.0032 83.0047 87.3965 82.762C86.7898 82.51 86.2672 82.1553 85.8285 81.698C85.3992 81.2407 85.0678 80.6947 84.8345 80.06C84.6012 79.416 84.4845 78.6973 84.4845 77.904C84.4845 77.1013 84.6012 76.3827 84.8345 75.748C85.0678 75.104 85.4038 74.5533 85.8425 74.096C86.2812 73.6387 86.7992 73.2887 87.3965 73.046C88.0032 72.8033 88.6798 72.682 89.4265 72.682C90.2478 72.682 90.9805 72.8267 91.6245 73.116C92.2778 73.396 92.8098 73.7973 93.2205 74.32C93.6405 74.8427 93.9018 75.4587 94.0045 76.168H92.7865C92.6932 75.692 92.4972 75.272 92.1985 74.908C91.8998 74.544 91.5172 74.2593 91.0505 74.054C90.5838 73.8393 90.0425 73.732 89.4265 73.732C88.6705 73.732 88.0125 73.9 87.4525 74.236C86.8925 74.572 86.4632 75.0527 86.1645 75.678C85.8658 76.294 85.7165 77.036 85.7165 77.904C85.7165 78.548 85.8005 79.1313 85.9685 79.654C86.1458 80.1673 86.3932 80.606 86.7105 80.97C87.0372 81.3247 87.4292 81.6 87.8865 81.796C88.3438 81.9827 88.8572 82.076 89.4265 82.076C90.0332 82.076 90.5698 81.9733 91.0365 81.768C91.5125 81.5627 91.8998 81.2733 92.1985 80.9C92.5065 80.5267 92.7025 80.088 92.7865 79.584L94.0045 79.598C93.9205 80.3073 93.6732 80.928 93.2625 81.46C92.8518 81.992 92.3152 82.4027 91.6525 82.692C90.9992 82.9813 90.2572 83.126 89.4265 83.126ZM95.6519 83V75.65H96.6599L96.7299 77.008H96.7859C96.9446 76.5413 97.2246 76.182 97.6259 75.93C98.0272 75.678 98.4752 75.552 98.9699 75.552C99.0539 75.552 99.1332 75.5567 99.2079 75.566C99.2826 75.566 99.3526 75.5707 99.4179 75.58V76.658C99.3526 76.6487 99.2826 76.644 99.2079 76.644C99.1332 76.6347 99.0539 76.63 98.9699 76.63C98.5406 76.63 98.1672 76.7093 97.8499 76.868C97.5326 77.0267 97.2806 77.2553 97.0939 77.554C96.9166 77.8433 96.8092 78.198 96.7719 78.618V83H95.6519ZM102.984 83.126C102.536 83.126 102.125 83.042 101.752 82.874C101.388 82.6967 101.071 82.4493 100.8 82.132C100.529 81.8053 100.319 81.4087 100.17 80.942C100.03 80.466 99.9601 79.9247 99.9601 79.318C99.9601 78.5153 100.086 77.8293 100.338 77.26C100.599 76.6907 100.954 76.2613 101.402 75.972C101.859 75.6733 102.387 75.524 102.984 75.524C103.413 75.524 103.801 75.594 104.146 75.734C104.501 75.8647 104.799 76.056 105.042 76.308C105.285 76.5507 105.467 76.84 105.588 77.176H105.658L105.7 75.65H106.792V83H105.658V81.46H105.588C105.401 81.9547 105.084 82.356 104.636 82.664C104.188 82.972 103.637 83.126 102.984 83.126ZM103.362 82.174C103.857 82.174 104.272 82.0573 104.608 81.824C104.944 81.5907 105.201 81.292 105.378 80.928C105.555 80.564 105.644 80.1767 105.644 79.766V78.87C105.644 78.4593 105.555 78.072 105.378 77.708C105.201 77.3347 104.944 77.036 104.608 76.812C104.272 76.5787 103.857 76.462 103.362 76.462C102.914 76.462 102.522 76.574 102.186 76.798C101.85 77.0127 101.589 77.33 101.402 77.75C101.215 78.17 101.122 78.6927 101.122 79.318C101.122 79.934 101.215 80.4567 101.402 80.886C101.589 81.306 101.85 81.628 102.186 81.852C102.522 82.0667 102.914 82.174 103.362 82.174ZM109.264 83V76.574H108.032V75.664H109.264V74.432C109.264 73.8813 109.418 73.4707 109.726 73.2C110.034 72.9293 110.463 72.794 111.014 72.794H112.022V73.704H111.252C110.916 73.704 110.687 73.7833 110.566 73.942C110.444 74.0913 110.384 74.3013 110.384 74.572V75.664H111.896V76.574H110.384V83H109.264ZM115.399 83C115.035 83 114.745 82.9487 114.531 82.846C114.325 82.7433 114.176 82.5893 114.083 82.384C113.999 82.1693 113.957 81.908 113.957 81.6V76.588H112.529V75.65H113.957V73.452L115.091 73.298V75.65H116.799V76.588H115.091V81.404C115.091 81.6653 115.137 81.838 115.231 81.922C115.324 82.006 115.497 82.048 115.749 82.048H116.799V83H115.399Z" fill="url(#paint3_linear_29_3)"/>
<defs>
<linearGradient id="paint0_linear_29_3" x1="44.5616" y1="18.2224" x2="77.3816" y2="70.7454" gradientUnits="userSpaceOnUse">
<stop stop-color="#EF32D9"/>
<stop offset="1" stop-color="#00D3CF"/>
</linearGradient>
<linearGradient id="paint1_linear_29_3" x1="34.2224" y1="60.3816" x2="86.7454" y2="27.5616" gradientUnits="userSpaceOnUse">
<stop stop-color="#EF32D9"/>
<stop offset="1" stop-color="#00D3CF"/>
</linearGradient>
<linearGradient id="paint2_linear_29_3" x1="76.3816" y1="69.7454" x2="43.5615" y2="17.2224" gradientUnits="userSpaceOnUse">
<stop stop-color="#EF32D9"/>
<stop offset="1" stop-color="#00D3CF"/>
</linearGradient>
<linearGradient id="paint3_linear_29_3" x1="3" y1="69" x2="133.674" y2="87.2021" gradientUnits="userSpaceOnUse">
<stop stop-color="#EF32D9"/>
<stop offset="1" stop-color="#00D3CF"/>
</linearGradient>
</defs>
</svg>
